<svg width="28" height="28" viewBox="0 0 28 28" fill="none" xmlns="http://www.w3.org/2000/svg">
	<path d="M16.8414 18.7882H20.6457" stroke="black" stroke-width="0.779932" stroke-miterlimit="10" stroke-linecap="round" stroke-linejoin="round" />
	<path d="M8.2583 18.7882H12.0625" stroke="black" stroke-width="0.779932" stroke-miterlimit="10" stroke-linecap="round" stroke-linejoin="round" />
	<mask id="mask0_198_1138" style="mask-type:'-moz-initial'" maskUnits="userSpaceOnUse" x="0" y="0" width="28" height="28">
		<path d="M0.813599 0.734766H28V27.9211H0.813599V0.734766Z" fill="white" />
	</mask>
	<g mask="url(#mask0_198_1138)">
		<path d="M24.8935 18.7882H27.4688V16.6643C27.4688 14.4355 25.662 12.6288 23.4333 12.6288H21.7666L19.6627 9.55557C18.6134 8.02293 16.8756 7.10656 15.0182 7.10656H12.9698H10.9214C9.06402 7.10656 7.32616 8.02293 6.27688 9.55557L4.17302 12.6288C2.50031 13.0984 1.34436 14.6236 1.34436 16.361V17.7262C1.34436 18.3128 1.8198 18.7882 2.40633 18.7882H4.01048" stroke="black" stroke-width="0.779932" stroke-miterlimit="10" stroke-linecap="round" stroke-linejoin="round" />
		<path d="M8.25825 19.4254C8.25825 18.2524 7.30731 17.3014 6.13431 17.3014C4.96132 17.3014 4.01038 18.2524 4.01038 19.4254C4.01038 20.5984 4.96132 21.5493 6.13431 21.5493C7.30731 21.5493 8.25825 20.5984 8.25825 19.4254Z" stroke="black" stroke-width="0.779932" stroke-miterlimit="10" stroke-linecap="round" stroke-linejoin="round" />
		<path d="M24.8935 19.4254C24.8935 18.2524 23.9426 17.3014 22.7696 17.3014C21.5966 17.3014 20.6456 18.2524 20.6456 19.4254C20.6456 20.5984 21.5966 21.5493 22.7696 21.5493C23.9426 21.5493 24.8935 20.5984 24.8935 19.4254Z" stroke="black" stroke-width="0.779932" stroke-miterlimit="10" stroke-linecap="round" stroke-linejoin="round" />
		<path d="M19.1928 12.6289L17.9103 10.7554C17.2566 9.80062 16.1755 9.23056 15.0184 9.23056H13.5837V12.6289L19.1928 12.6289Z" stroke="black" stroke-width="0.779932" stroke-miterlimit="10" stroke-linecap="round" stroke-linejoin="round" />
		<path d="M11.4599 9.23049H10.9217C9.76458 9.23049 8.68349 9.80055 8.02975 10.7554L6.74731 12.6288H11.4599V9.23049Z" stroke="black" stroke-width="0.779932" stroke-miterlimit="10" stroke-linecap="round" stroke-linejoin="round" />
		<path d="M13.5837 14.766H14.2121" stroke="black" stroke-width="0.779932" stroke-miterlimit="10" stroke-linecap="round" stroke-linejoin="round" />
	</g>
</svg>
